<?xml version="1.0" encoding="UTF-8"?>
<svg xmlns="http://www.w3.org/2000/svg" xmlns:xlink="http://www.w3.org/1999/xlink" width="150px" height="150px" viewBox="0 0 150 150" version="1.1">
<g id="surface1">
<rect x="0" y="0" width="150" height="150" style="fill:rgb(83.921569%,16.078431%,15.686275%);fill-opacity:1;stroke:none;"/>
<path style=" stroke:none;fill-rule:nonzero;fill:rgb(100%,100%,100%);fill-opacity:1;" d="M 42.851562 61.25 C 72.699219 55.300781 57.300781 59.148438 87.25 49.449219 C 90.25 53.25 97.300781 54.199219 110.25 48.398438 C 115.75 49.800781 121.199219 50.75 127 49.699219 C 131.050781 50.601562 134.75 51.898438 139.199219 51.898438 C 140.101562 50.5 142.851562 47.199219 143.800781 44.050781 L 142.898438 42.199219 L 142.550781 39.050781 C 140.949219 37.550781 138.648438 37.050781 135.699219 36.398438 C 129.199219 31.601562 119.851562 27.5 113.449219 24.148438 L 111 21.148438 C 101.601562 19.300781 92.25 17.25 82.949219 13.449219 L 81.949219 14.601562 L 85 21.75 C 59.148438 29.398438 52.398438 36.5 36.449219 51.148438 C 34.75 51.050781 33.050781 50.898438 31.351562 50.648438 C 22.949219 49.601562 14.949219 47.199219 6.351562 42.699219 C 10.851562 51.601562 22.199219 56.800781 27.449219 59.101562 L 28.550781 59.601562 C 22.648438 66.101562 12.050781 78.648438 12.050781 97.398438 C 12.050781 108.25 17.601562 120.050781 29.25 120 C 60.949219 120 85.050781 84.851562 87.601562 81.898438 C 88 81.449219 88.300781 81.050781 88.550781 80.601562 L 67.449219 136.5 L 88.75 136.5 C 102 136.5 112.949219 132.449219 120.898438 125.300781 C 127.800781 119.050781 132.101562 110.800781 133.101562 101.851562 C 133.898438 94.5 132.449219 88.75 128.5 84.351562 C 124.300781 79.550781 117.050781 76.550781 106.199219 76.550781 L 90.050781 76.550781 L 90.050781 76.601562 L 90.050781 76.550781 C 90.050781 76.550781 66.101562 106.300781 42.5 106.300781 C 32.898438 106.449219 29.351562 99.75 29.949219 91.5 C 30.699219 80.699219 36.351562 68.75 42.851562 61.25 Z M 94.351562 27.398438 L 91 23.601562 L 91 22.449219 C 96.898438 23.25 99.351562 25.898438 100.800781 26.898438 C 104.25 27.300781 107.800781 27.148438 110.398438 28.351562 C 110.949219 31.25 113.898438 33.199219 116.398438 34.351562 L 125.449219 38.101562 C 123.101562 43.75 112.75 41.25 110.601562 40.449219 C 104.699219 41.601562 96.699219 42.050781 94.550781 38.75 C 80.851562 46.5 68.148438 48.351562 46.851562 52.648438 C 63.800781 37.648438 73.351562 32.648438 94.351562 27.398438 Z M 97 86.101562 L 104.398438 86.101562 C 111.601562 86.101562 116.5 88 119.300781 91.148438 C 121.648438 93.800781 122.75 97.5 122.25 102.199219 C 121.550781 108.699219 118.5 114.449219 113.800781 118.75 C 107.949219 124.050781 99.898438 126.898438 91.148438 126.898438 L 81.5 126.898438 Z M 97 86.101562 "/>
</g>
</svg>
